<?xml version="1.0"?>
<svg version="1.1" xmlns="http://www.w3.org/2000/svg" width="140px" height="40px" style=""><path fill="#b362ac" d="M50.8056640625,34.6630859375q0-0.087890625,0.05859375-0.62255859375t0.15380859375-1.3037109375t0.21240234375-1.6552734375t0.205078125-1.67724609375t0.15380859375-1.3916015625t0.06591796875-0.8056640625q-0.1171875-0.05859375-0.28564453125-0.16845703125t-0.16845703125-0.25634765625q0-0.205078125,0.19775390625-0.32958984375t0.34423828125-0.18310546875q0.05859375-0.7470703125,0.146484375-2.080078125t0.27099609375-2.87841796875t0.5126953125-3.134765625t0.87158203125-2.8857421875t1.3037109375-2.11669921875t1.875-0.8203125t1.845703125,0.703125t1.19384765625,1.8310546875t0.703125,2.5048828125t0.3662109375,2.7392578125t0.15380859375,2.548828125t0.05859375,1.904296875q0.029296875,0.4541015625,0.2197265625,0.60791015625t0.41748046875,0.21240234375t0.41015625,0.1318359375t0.18310546875,0.3662109375q0,0.3369140625-0.41015625,0.46875t-0.64453125,0.1611328125q0.146484375,1.8310546875,0.40283203125,3.603515625t0.68115234375,3.57421875q0.05859375,0.3369140625,0.1611328125,0.68115234375t0.1025390625,0.66650390625q0,0.234375-0.1611328125,0.38818359375t-0.41748046875,0.24169921875t-0.5126953125,0.1171875t-0.43212890625,0.029296875q-0.6591796875,0-1.11328125-0.2490234375t-0.6005859375-0.9521484375q-0.3955078125-1.8896484375-0.7763671875-3.9697265625q-0.322265625-1.8017578125-0.322265625-3.5009765625q0-0.263671875,0.0146484375-0.52734375q-1.23046875,0-2.4755859375,0.05859375t-2.3876953125,0.439453125q-0.029296875,0.3955078125-0.146484375,1.494140625t-0.263671875,2.3583984375t-0.30029296875,2.40966796875t-0.18310546875,1.63330078125q-0.029296875,0.205078125-0.30029296875,0.38818359375t-0.5859375,0.19775390625t-0.556640625-0.19775390625t-0.24169921875-0.75439453125z M53.544921875,25.7861328125q1.142578125-0.263671875,2.29248046875-0.3076171875t2.32177734375-0.1025390625q-0.05859375-0.3662109375-0.029296875-0.75439453125t0.029296875-0.78369140625q0-0.8642578125-0.0439453125-2.0068359375t-0.1318359375-2.314453125t-0.22705078125-2.30712890625t-0.31494140625-2.021484375t-0.37353515625-1.41357421875t-0.43212890625-0.52734375q-0.4541015625,0.029296875-0.85693359375,0.78369140625t-0.732421875,1.9189453125t-0.6005859375,2.607421875t-0.4541015625,2.81982421875t-0.30029296875,2.5634765625t-0.146484375,1.845703125z M65.566455078125,29.0234375q0-0.8056640625,0.15380859375-1.72119140625t0.52734375-1.67724609375t1.03271484375-1.259765625t1.6845703125-0.498046875q0.6884765625,0,1.3330078125,0.22705078125t1.2158203125,0.62255859375q0.17578125-0.29296875,0.556640625-0.35888671875t0.673828125-0.06591796875q0.1171875,0,0.32958984375,0.0146484375t0.41748046875,0.087890625t0.35888671875,0.17578125t0.18310546875,0.29296875q0.1171875,1.025390625,0.1611328125,2.04345703125t0.1318359375,2.02880859375q0.146484375,1.8896484375,0.4541015625,3.7353515625t0.3076171875,3.7353515625q0,0.8935546875-0.08056640625,1.93359375t-0.4248046875,1.92626953125t-1.00341796875,1.47216796875t-1.8310546875,0.5859375q-1.0546875,0-1.61865234375-0.37353515625t-1.01806640625-1.25244140625q0.029296875-0.29296875,0.37353515625-0.38818359375t0.59326171875-0.09521484375q0.234375,0,0.47607421875,0.0439453125t0.38818359375,0.146484375l0.3662109375,0.234375q0.5419921875-1.11328125,0.6591796875-2.431640625t0.1171875-2.548828125q0-1.025390625-0.1025390625-2.02880859375t-0.205078125-2.01416015625q-1.025390625,1.8603515625-3.1201171875,1.8603515625q-0.966796875,0-1.57470703125-0.41015625t-0.9375-1.0400390625t-0.4541015625-1.4208984375t-0.12451171875-1.58203125z M67.368212890625,29.1552734375q0,0.3662109375,0.029296875,0.94482421875t0.15380859375,1.13525390625t0.35888671875,0.95947265625t0.6591796875,0.40283203125q0.8056640625,0,1.2744140625-0.6298828125t0.73974609375-1.50146484375t0.43212890625-1.8017578125t0.41015625-1.53076171875q-0.029296875-0.205078125-0.029296875-0.40283203125l0-0.40283203125q-0.3369140625-0.6298828125-0.9814453125-1.09130859375t-1.3330078125-0.62255859375q-0.087890625-0.0146484375-0.1611328125-0.0146484375q-0.41015625,0-0.673828125,0.4833984375q-0.3369140625,0.5859375-0.52734375,1.39892578125t-0.27099609375,1.60400390625t-0.08056640625,1.0693359375z M77.48544921875,28.2470703125q0-0.29296875,0.06591796875-0.7763671875t0.15380859375-0.95947265625t0.205078125-0.88623046875t0.2783203125-0.52734375q0.1171875-0.1171875,0.40283203125-0.234375t0.6005859375-0.16845703125t0.5859375,0.0439453125t0.32958984375,0.38818359375q-0.205078125,0.263671875-0.37353515625,0.90087890625t-0.25634765625,1.41357421875q-0.0732421875,0.6591796875-0.0732421875,1.3623046875l0,0.2490234375q0.0146484375,0.8203125,0.146484375,1.5087890625t0.40283203125,1.13525390625t0.75439453125,0.44677734375q1.025390625,0,1.875-0.94482421875t1.5087890625-2.30712890625t1.1572265625-2.89306640625t0.849609375-2.67333984375q0.087890625-0.3369140625,0.41748046875-0.4541015625t0.71044921875-0.08056640625t0.68115234375,0.18310546875t0.35888671875,0.3515625q-0.29296875,2.4609375-0.46142578125,4.921875t-0.16845703125,4.951171875q0,0.4833984375,0.0439453125,0.88623046875t-0.0439453125,0.6884765625t-0.38818359375,0.4541015625t-0.95947265625,0.16845703125q-0.146484375,0-0.37353515625-0.029296875t-0.46875-0.09521484375t-0.41015625-0.19775390625t-0.16845703125-0.3076171875q0-1.083984375,0.08056640625-2.2265625t0.22705078125-2.2119140625q-0.3955078125,0.5712890625-0.87158203125,1.13525390625t-1.04736328125,1.01806640625t-1.23046875,0.72509765625t-1.4208984375,0.27099609375q-1.083984375,0-1.70654296875-0.5126953125t-0.9375-1.28173828125t-0.3955078125-1.67724609375t-0.08056640625-1.7578125z M91.264794921875,34.736328125q0-0.4248046875,0.03662109375-0.8935546875t0.06591796875-0.87890625l0.087890625-2.197265625q0.146484375-2.63671875,0.35888671875-5.185546875t0.35888671875-5.15625q0.087890625-1.435546875,0.1318359375-2.81982421875t0.1318359375-2.81982421875q-0.05859375-0.1171875-0.05859375-0.1611328125q0-0.205078125,0.15380859375-0.322265625t0.35888671875-0.19775390625t0.43212890625-0.10986328125t0.34423828125-0.029296875l0.3369140625,0q0.4541015625,0.05859375,0.6591796875,0.28564453125t0.263671875,0.5419921875t0.029296875,0.673828125t-0.029296875,0.66650390625q0,2.1240234375-0.1025390625,4.32861328125t-0.234375,4.423828125t-0.24169921875,4.4384765625t-0.10986328125,4.38720703125l0,1.025390625q0,0.6884765625-0.38818359375,0.908203125t-1.07666015625,0.2197265625q-0.6005859375,0-1.0546875-0.263671875t-0.4541015625-0.8642578125z"/><path fill="#" d=""/></svg>
